<?xml version="1.0" encoding="UTF-8" standalone="no"?>
<!-- Generator: Adobe Illustrator 16.0.0, SVG Export Plug-In . SVG Version: 6.00 Build 0)  -->

<svg
   xmlns:dc="http://purl.org/dc/elements/1.1/"
   xmlns:cc="http://creativecommons.org/ns#"
   xmlns:rdf="http://www.w3.org/1999/02/22-rdf-syntax-ns#"
   xmlns:svg="http://www.w3.org/2000/svg"
   xmlns="http://www.w3.org/2000/svg"
   xmlns:sodipodi="http://sodipodi.sourceforge.net/DTD/sodipodi-0.dtd"
   xmlns:inkscape="http://www.inkscape.org/namespaces/inkscape"
   version="1.1"
   id="Layer_1"
   x="0px"
   y="0px"
   width="400"
   height="400"
   viewBox="0 0 400 400"
   enable-background="new 0 0 50 50"
   xml:space="preserve"
   sodipodi:docname="1.svg"
   inkscape:version="0.92.4 (5da689c313, 2019-01-14)"><metadata
   id="metadata9"><rdf:RDF><cc:Work
       rdf:about=""><dc:format>image/svg+xml</dc:format><dc:type
         rdf:resource="http://purl.org/dc/dcmitype/StillImage" /><dc:title /></cc:Work></rdf:RDF></metadata><defs
   id="defs7" /><sodipodi:namedview
   pagecolor="#ffffff"
   bordercolor="#666666"
   borderopacity="1"
   objecttolerance="10"
   gridtolerance="10"
   guidetolerance="10"
   inkscape:pageopacity="0"
   inkscape:pageshadow="2"
   inkscape:window-width="1942"
   inkscape:window-height="1094"
   id="namedview5"
   showgrid="false"
   inkscape:zoom="0.834386"
   inkscape:cx="-377.44479"
   inkscape:cy="-55.946257"
   inkscape:window-x="58"
   inkscape:window-y="74"
   inkscape:window-maximized="0"
   inkscape:current-layer="Layer_1" />

<path
   inkscape:connector-curvature="0"
   d="M 350,0 H 50 C 22.39,0 0,22.39 0,50 v 300 c 0,27.62 22.39,50 50,50 h 300 c 27.62,0 50,-22.38 50,-50 V 50 C 400,22.39 377.62,0 350,0 Z M 199.59,232.5 c -17.95,0 -32.5,-14.55 -32.5,-32.5 0,-17.95 14.55,-32.5 32.5,-32.5 17.95,0 32.5,14.55 32.5,32.5 0,17.95 -14.55,32.5 -32.5,32.5 z"
   id="path2"
   style="fill:#404040;stroke-width:10;fill-opacity:1" /><ellipse
   style="opacity:0.23500001;fill:#ffffff;fill-opacity:1;fill-rule:nonzero;stroke:#788aa9;stroke-width:0.47256267;stroke-opacity:1"
   id="path812"
   cx="200"
   cy="200"
   rx="37.263721"
   ry="37.263718" /></svg>